<?xml version="1.0" encoding="UTF-8" standalone="no"?>
<!-- Created with Inkscape (http://www.inkscape.org/) -->

<svg
   width="145.15202mm"
   height="164.99953mm"
   viewBox="0 0 145.15202 164.99952"
   version="1.1"
   id="svg1"
   xml:space="preserve"
   inkscape:version="1.3 (0e150ed6c4, 2023-07-21)"
   sodipodi:docname="bookstoria-logo.svg"
   xmlns:inkscape="http://www.inkscape.org/namespaces/inkscape"
   xmlns:sodipodi="http://sodipodi.sourceforge.net/DTD/sodipodi-0.dtd"
   xmlns="http://www.w3.org/2000/svg"
   xmlns:svg="http://www.w3.org/2000/svg"><sodipodi:namedview
     id="namedview1"
     pagecolor="#ffffff"
     bordercolor="#999999"
     borderopacity="1"
     inkscape:showpageshadow="0"
     inkscape:pageopacity="0"
     inkscape:pagecheckerboard="0"
     inkscape:deskcolor="#d1d1d1"
     inkscape:document-units="mm"
     inkscape:zoom="0.35355339"
     inkscape:cx="-275.77164"
     inkscape:cy="-2.8284271"
     inkscape:window-width="1920"
     inkscape:window-height="1001"
     inkscape:window-x="-9"
     inkscape:window-y="-9"
     inkscape:window-maximized="1"
     inkscape:current-layer="layer1" /><defs
     id="defs1" /><g
     inkscape:label="Vrstva 1"
     inkscape:groupmode="layer"
     id="layer1"
     transform="translate(-37.605567,-39.999999)"><g
       id="g61"><g
         id="g41"
         transform="translate(0,-156.5724)"><rect
           style="fill:#845814;fill-opacity:1;stroke:#000000;stroke-width:0"
           id="rect41"
           width="30"
           height="9.999999"
           x="132.75757"
           y="196.5724"
           ry="4.9999995" /><rect
           style="fill:#845814;fill-opacity:1;stroke:#000000;stroke-width:0"
           id="rect40"
           width="30"
           height="9.999999"
           x="132.75757"
           y="236.57193"
           ry="4.9999995" /><path
           id="path11"
           style="fill:#845814;fill-opacity:1;stroke:#000000;stroke-width:0"
           d="m 157.75757,196.5724 v 9.99991 a 14.999999,15 0 0 1 15.00011,15.00011 14.999999,15 0 0 1 -15.00011,14.99961 v 9.9999 a 25,25 0 0 0 25.00002,-24.99951 25,25 0 0 0 -25.00002,-25.00002 z" /><g
           id="g40"
           transform="translate(34.657,-14.816666)"><rect
             style="fill:#845814;fill-opacity:1;stroke:#000000;stroke-width:0"
             id="rect12"
             width="115"
             height="9.999999"
             x="7.9488411"
             y="211.38907"
             ry="0" /><rect
             style="fill:#845814;fill-opacity:1;stroke:#000000;stroke-width:0"
             id="rect13"
             width="115"
             height="9.999999"
             x="7.9488411"
             y="251.3886"
             ry="0" /><rect
             style="fill:#845814;fill-opacity:1;stroke:#000000;stroke-width:0"
             id="rect14"
             width="4.999999"
             height="35"
             x="7.9488411"
             y="218.88884" /><rect
             style="fill:#845814;fill-opacity:1;stroke:#000000;stroke-width:0"
             id="rect23"
             width="0.45078957"
             height="9.9999962"
             x="122.65005"
             y="251.3886" /><rect
             style="fill:#845814;fill-opacity:1;stroke:#000000;stroke-width:0"
             id="rect24"
             width="0.38063148"
             height="9.9999962"
             x="122.70852"
             y="211.38907" /><rect
             style="fill:#845814;fill-opacity:1;stroke:#000000;stroke-width:0"
             id="rect25"
             width="29.999998"
             height="9.999999"
             x="2.9485674"
             y="251.3886"
             ry="4.9999995" /><rect
             style="fill:#845814;fill-opacity:1;stroke:#000000;stroke-width:0"
             id="rect26"
             width="29.999998"
             height="9.999999"
             x="2.9485674"
             y="211.38907"
             ry="4.9999995" /></g></g><g
         id="g51"
         transform="matrix(-1,0,0,1,220.36316,-99.072399)"
         style="fill:#553d05;fill-opacity:1"><rect
           style="fill:#553d05;fill-opacity:1;stroke:#000000;stroke-width:0"
           id="rect42"
           width="30"
           height="9.999999"
           x="132.75757"
           y="196.5724"
           ry="4.9999995" /><rect
           style="fill:#553d05;fill-opacity:1;stroke:#000000;stroke-width:0"
           id="rect43"
           width="30"
           height="9.999999"
           x="132.75757"
           y="236.57193"
           ry="4.9999995" /><path
           id="path43"
           style="fill:#553d05;fill-opacity:1;stroke:#000000;stroke-width:0"
           d="m 157.75757,196.5724 v 9.99991 a 14.999999,15 0 0 1 15.00011,15.00011 14.999999,15 0 0 1 -15.00011,14.99961 v 9.9999 a 25,25 0 0 0 25.00002,-24.99951 25,25 0 0 0 -25.00002,-25.00002 z" /><g
           id="g50"
           transform="translate(34.657,-14.816666)"
           style="fill:#553d05;fill-opacity:1"><rect
             style="fill:#553d05;fill-opacity:1;stroke:#000000;stroke-width:0"
             id="rect44"
             width="115"
             height="9.999999"
             x="7.9488411"
             y="211.38907"
             ry="0" /><rect
             style="fill:#553d05;fill-opacity:1;stroke:#000000;stroke-width:0"
             id="rect45"
             width="115"
             height="9.999999"
             x="7.9488411"
             y="251.3886"
             ry="0" /><rect
             style="fill:#553d05;fill-opacity:1;stroke:#000000;stroke-width:0"
             id="rect46"
             width="4.999999"
             height="35"
             x="7.9488411"
             y="218.88884" /><rect
             style="fill:#553d05;fill-opacity:1;stroke:#000000;stroke-width:0"
             id="rect47"
             width="0.45078957"
             height="9.9999962"
             x="122.65005"
             y="251.3886" /><rect
             style="fill:#553d05;fill-opacity:1;stroke:#000000;stroke-width:0"
             id="rect48"
             width="0.38063148"
             height="9.9999962"
             x="122.70852"
             y="211.38907" /><rect
             style="fill:#553d05;fill-opacity:1;stroke:#000000;stroke-width:0"
             id="rect49"
             width="29.999998"
             height="9.999999"
             x="2.9485674"
             y="251.3886"
             ry="4.9999995" /><rect
             style="fill:#553d05;fill-opacity:1;stroke:#000000;stroke-width:0"
             id="rect50"
             width="29.999998"
             height="9.999999"
             x="2.9485674"
             y="211.38907"
             ry="4.9999995" /></g></g><g
         id="g60"
         transform="translate(0,-41.572399)"
         style="fill:#c9ac68;fill-opacity:1"><rect
           style="fill:#c9ac68;fill-opacity:1;stroke:#000000;stroke-width:0"
           id="rect51"
           width="30"
           height="9.999999"
           x="132.75757"
           y="196.5724"
           ry="4.9999995" /><rect
           style="fill:#c9ac68;fill-opacity:1;stroke:#000000;stroke-width:0"
           id="rect52"
           width="30"
           height="9.999999"
           x="132.75757"
           y="236.57193"
           ry="4.9999995" /><path
           id="path52"
           style="fill:#c9ac68;fill-opacity:1;stroke:#000000;stroke-width:0"
           d="m 157.75757,196.5724 v 9.99991 a 14.999999,15 0 0 1 15.00011,15.00011 14.999999,15 0 0 1 -15.00011,14.99961 v 9.9999 a 25,25 0 0 0 25.00002,-24.99951 25,25 0 0 0 -25.00002,-25.00002 z" /><g
           id="g59"
           transform="translate(34.657,-14.816666)"
           style="fill:#c9ac68;fill-opacity:1"><rect
             style="fill:#c9ac68;fill-opacity:1;stroke:#000000;stroke-width:0"
             id="rect53"
             width="115"
             height="9.999999"
             x="7.9488411"
             y="211.38907"
             ry="0" /><rect
             style="fill:#c9ac68;fill-opacity:1;stroke:#000000;stroke-width:0"
             id="rect54"
             width="115"
             height="9.999999"
             x="7.9488411"
             y="251.3886"
             ry="0" /><rect
             style="fill:#c9ac68;fill-opacity:1;stroke:#000000;stroke-width:0"
             id="rect55"
             width="4.999999"
             height="35"
             x="7.9488411"
             y="218.88884" /><rect
             style="fill:#c9ac68;fill-opacity:1;stroke:#000000;stroke-width:0"
             id="rect56"
             width="0.45078957"
             height="9.9999962"
             x="122.65005"
             y="251.3886" /><rect
             style="fill:#c9ac68;fill-opacity:1;stroke:#000000;stroke-width:0"
             id="rect57"
             width="0.38063148"
             height="9.9999962"
             x="122.70852"
             y="211.38907" /><rect
             style="fill:#c9ac68;fill-opacity:1;stroke:#000000;stroke-width:0"
             id="rect58"
             width="29.999998"
             height="9.999999"
             x="2.9485674"
             y="251.3886"
             ry="4.9999995" /><rect
             style="fill:#c9ac68;fill-opacity:1;stroke:#000000;stroke-width:0"
             id="rect59"
             width="29.999998"
             height="9.999999"
             x="2.9485674"
             y="211.38907"
             ry="4.9999995" /></g></g></g></g></svg>
